<svg width="100" height="100" viewBox="0 0 100 100" xmlns="http://www.w3.org/2000/svg" xmlns:xlink="http://www.w3.org/1999/xlink"><title>Icon 2</title><defs><path id="a" d="M0 .26h46V38H0"/></defs><g fill="none" fill-rule="evenodd"><path d="M39.48 67c-2.268 0-4.106-1.838-4.106-4.105v-27.53c0-2.266 1.838-4.104 4.105-4.104 2.266 0 4.104 1.84 4.104 4.106v27.53c0 2.266-1.838 4.104-4.105 4.104z" stroke="#F5861E" stroke-width="2"/><g transform="translate(27 30)"><mask id="b" fill="#fff"><use xlink:href="#a"/></mask><path d="M8.374 19.13H0" stroke="#F5861E" stroke-width="2" mask="url(#b)"/></g><path d="M43.584 49.13h12.832M31.618 40.024v18.213M60.52 31.26c2.268 0 4.106 1.84 4.106 4.106v27.53c0 2.266-1.838 4.104-4.105 4.104-2.266 0-4.104-1.838-4.104-4.105v-27.53c0-2.266 1.838-4.104 4.105-4.104zM64.626 49.13H73M68.382 58.237V40.024" stroke="#F5861E" stroke-width="2"/><path d="M50 0C22.386 0 0 22.385 0 50c0 27.614 22.386 50 50 50s50-22.386 50-50c0-27.615-22.386-50-50-50zm47 50c0 25.916-21.084 47-47 47S3 75.915 3 50C3 24.083 24.084 3 50 3s47 21.084 47 47z" fill="#F5861E"/></g></svg>