<svg width="100" height="100" viewBox="0 0 100 100" xmlns="http://www.w3.org/2000/svg"><title>Icon 1</title><g fill="none" fill-rule="evenodd"><path d="M51.08 40.393c-.694.16-2.314-.08-5.918-4.01-3.61-3.93-5.33-2-5.33-2C32.162 40.238 29 37.943 29 37.943s7.718 9.093 21.927 4.507m.227-2.057c.695.16 2.313-.08 5.918-4.01 3.608-3.93 5.328-2 5.328-2 7.672 5.854 10.834 3.56 10.834 3.56s-7.718 9.092-21.928 4.506m3.66-11.64c0 2.103-1.706 3.81-3.81 3.81s-3.81-1.707-3.81-3.81c0-2.104 1.706-3.81 3.81-3.81s3.81 1.706 3.81 3.81zm-3.812 37.95V73m0-38.38v15.714m7.8-2.82c2.403 0 5.693.067 6.755 1.64.86 1.293.21 2.807-1.12 3.863-1.48 1.174-4.64 1.795-6.863 2.265-2.802.594-5.626.914-8.238 1.653-4.94 1.392-5.173 5.243-1.02 7.27 2.43 1.187 5.17 1.83 7.72 2.745 2.305.83 2.653 1.84 2.535 3.472-.05.715-.552 1.14-.914 1.798m-9.003-6.035c-.78.248-1.553.493-2.31.766-2.307.83-2.653 1.84-2.532 3.474.05.715.552 1.14.907 1.798m9.095-15.037c4.187 1.562 4.18 5.107.25 7.023m-10.48-16.692c-2.41 0-5.692.067-6.756 1.64-.862 1.293-.212 2.807 1.123 3.863 1.476 1.173 4.642 1.794 6.858 2.264.843.18 1.695.334 2.535.482" stroke="#F5861E" stroke-width="2" stroke-linecap="round" stroke-linejoin="round"/><path d="M50 0C22.386 0 0 22.385 0 50c0 27.614 22.386 50 50 50s50-22.386 50-50c0-27.615-22.386-50-50-50zm47 50c0 25.916-21.084 47-47 47S3 75.915 3 50C3 24.083 24.084 3 50 3s47 21.084 47 47z" fill="#F5861E"/></g></svg>