<svg width="100" height="100" viewBox="0 0 100 100" xmlns="http://www.w3.org/2000/svg"><title>Icon 3</title><g fill="none" fill-rule="evenodd"><path d="M50 0C22.386 0 0 22.385 0 50c0 27.614 22.386 50 50 50s50-22.386 50-50c0-27.615-22.386-50-50-50zm47 50c0 25.916-21.084 47-47 47S3 75.915 3 50C3 24.083 24.084 3 50 3s47 21.084 47 47z" fill="#F5861E"/><g stroke="#F5861E" stroke-width="2" stroke-linecap="round" stroke-linejoin="round"><path d="M73.815 41.522s-2.69-2.747-5.824-2.418c-3.095.324-1.55.82-4.835.83-3.285-.01-1.74-.505-4.837-.83-3.135-.33-5.825 2.418-5.825 2.418-6.344 7.503 2.395 17.334 5.15 19.235 2.435 1.684 4.962.392 5.513.07.55.322 3.078 1.614 5.514-.07 2.753-1.9 11.492-11.732 5.147-19.235M59.425 28.47s4.685 4.345 3.697 11.08m2.89-4.766s-.405-6.296 10.065-4.617c0 0-2.5 8.116-10.064 4.617zM28.306 52.88c-.44 2.256 1.036 4.44 3.292 4.877 2.257.437 4.44-1.036 4.88-3.292.437-2.257-1.038-4.44-3.292-4.88-2.26-.438-4.443 1.036-4.88 3.294zm9.562-7.494c-.44 2.257 1.034 4.443 3.292 4.88 2.255.436 4.44-1.037 4.88-3.293.435-2.258-1.04-4.443-3.294-4.88-2.26-.438-4.444 1.035-4.88 3.293zm1.21 12.227c-.437 2.257 1.037 4.44 3.294 4.88 2.258.436 4.44-1.038 4.88-3.294.44-2.26-1.034-4.445-3.29-4.88-2.258-.44-4.445 1.033-4.88 3.29zM34.164 41.13c.125.12 5.126-1.99 4.328-5.118-.744-2.93-.5-5.827-.5-5.827-10.67 5.742-3.826 10.945-3.826 10.945zM23 41.794s5.497-2.816 10.28 3.187"/><path d="M72.383 56.91c2.862 1.647 4.533 3.63 4.533 5.77 0 5.698-11.882 10.32-26.54 10.32C35.72 73 23.84 68.378 23.84 62.68c0-2.238 1.83-4.31 4.943-6"/></g></g></svg>