<svg width="100" height="100" viewBox="0 0 100 100" xmlns="http://www.w3.org/2000/svg"><title>Icon 1</title><g fill="none" fill-rule="evenodd"><path d="M51.08 40.393c-.694.16-2.314-.08-5.918-4.01-3.61-3.93-5.33-2-5.33-2C32.163 40.238 29 37.944 29 37.944s7.718 9.092 21.927 4.506M51.154 40.393c.695.16 2.313-.08 5.918-4.01 3.608-3.93 5.328-2 5.328-2 7.672 5.854 10.834 3.56 10.834 3.56s-7.718 9.092-21.928 4.506M54.965 30.812c0 2.102-1.705 3.81-3.81 3.81-2.103 0-3.81-1.708-3.81-3.81 0-2.105 1.707-3.812 3.81-3.812 2.105 0 3.81 1.707 3.81 3.812zM51.154 68.763V73M51.154 34.62v15.714M58.953 47.514c2.404 0 5.694.067 6.756 1.64.86 1.293.213 2.807-1.117 3.863-1.482 1.174-4.64 1.795-6.864 2.265-2.802.594-5.626.914-8.238 1.653-4.938 1.392-5.172 5.243-1.02 7.27 2.43 1.187 5.17 1.83 7.722 2.745 2.304.83 2.652 1.84 2.534 3.472-.05.715-.552 1.14-.914 1.798M48.808 66.185c-.78.248-1.553.493-2.31.766-2.307.83-2.653 1.84-2.532 3.472.05.715.552 1.14.907 1.798M53.968 57.183c4.187 1.562 4.18 5.107.25 7.023M43.738 47.514c-2.41 0-5.692.067-6.756 1.64-.863 1.293-.213 2.807 1.122 3.863 1.476 1.174 4.642 1.795 6.858 2.265.842.18 1.694.334 2.534.482" stroke="#F5861E" stroke-width="2" stroke-linecap="round" stroke-linejoin="round"/><path d="M50 0C22.386 0 0 22.385 0 50c0 27.614 22.386 50 50 50s50-22.386 50-50c0-27.615-22.386-50-50-50zm47 50c0 25.916-21.084 47-47 47S3 75.915 3 50C3 24.083 24.084 3 50 3s47 21.084 47 47z" fill="#F5861E"/></g></svg>