<svg width="1099" height="810" viewBox="0 0 1099 810" xmlns="http://www.w3.org/2000/svg" xmlns:xlink="http://www.w3.org/1999/xlink"><title>mainIllustration</title><defs><path id="a" d="M0 .305h371.9V438H0"/><path id="c" d="M0 .305h371.9V438H0"/><path id="e" d="M0 .166h154.73V134H0"/><path id="g" d="M0 .166h154.73V134H0"/><path id="i" d="M0 .25h320.75V321H0"/><path id="k" d="M0 .163h163.978V259H0V.163z"/></defs><g fill="none" fill-rule="evenodd"><g transform="translate(0 162)"><mask id="b" fill="#fff"><use xlink:href="#a"/></mask><path d="M317.318 120.16c72.683 72.616 72.79 190.46.237 263.21-72.55 72.747-190.29 72.854-262.973.237-72.683-72.618-72.79-190.46-.238-263.21 72.553-72.75 190.29-72.856 262.974-.238" fill="#E2D9D3" mask="url(#b)"/></g><path d="M297.37 302.16c61.645 61.59 61.737 161.54.2 223.242-61.534 61.702-161.393 61.793-223.04.202-61.646-61.59-61.736-161.54-.2-223.24 61.535-61.703 161.393-61.793 223.04-.203" fill="#938882"/><path d="M284.962 314.384c54.842 54.792 54.923 143.708.18 198.6-54.744 54.892-143.58 54.972-198.422.18-54.842-54.792-54.923-143.71-.18-198.6 54.744-54.892 143.58-54.973 198.422-.18" fill="#E2D8D3"/><path d="M258.94 348.77c38.15 38.118 38.207 99.974.124 138.16-38.083 38.186-99.883 38.242-138.035.126-38.157-38.118-38.21-99.974-.13-138.16 38.083-38.187 99.883-38.242 138.035-.125" fill="#E2D8D3"/><path d="M202.467 406.297c-2.87-9.913-8.926-18.67-17.94-24.48-21.146-13.642-50.38-5.93-65.294 17.23-9.124 14.185-10.735 30.85-5.775 44.782-10.442 17.95-6.94 39.83 8.318 49.67 3.607 2.322 7.57 3.735 11.657 4.37 1.862 6.506 5.69 12.14 11.41 15.84 14.124 9.107 34.255 3.004 45.14-13.6 13.572 6.725 30.5 2.915 41.667-8.987 14.52 6.935 32.468 1.98 41.685-12.334 9.977-15.496 5.89-35.9-9.13-45.594-4.815-3.106-10.177-4.577-15.564-4.848-3.44-5.49-8.53-10.696-14.97-14.855-10.54-6.797-22.166-9.164-31.2-7.2" fill="#41540E"/><path d="M125.832 444.265s33.418-20.78 40.325-15.962c6.9 4.823 14.246 34.855 3.56 42.78-10.697 7.922-60.498-8.705-43.885-26.818" fill="#000"/><path d="M167.825 505.17s-27.955-14.158-27.537-20.856c.422-6.692 17.808-24.12 27.61-20.12 9.81 4.003 19.12 44.805-.073 40.976" fill="#000"/><path d="M132.48 468.334s39.68 2.61 48.766-14.623c9.1-17.232 13.456-14.35 14.79-8.73 1.327 5.627-12.05 38.836-18.476 40.24-6.43 1.41-53.814-6.97-49.452-11.92l4.372-4.962z" fill="#6D842C"/><path d="M213.96 378.898s52.136 37.473 49.187 50.9c-2.964 13.42-43.623 43.228-62.22 32.04-18.604-11.2-24.61-96.718 13.034-82.94" fill="#000"/><path d="M148.4 480.24s3.897-51.013 14.246-54.56c10.344-3.535 47.437 11.837 47.52 29.122.088 17.296-55.568 56.788-61.766 25.437" fill="#000"/><path d="M181.85 403.935s20.81 61.506 52.43 64.473c31.64 2.984 30.014 11.355 22.372 16.875-7.64 5.51-66.005 6.027-72.133-2.79-6.13-8.83-23.05-85.555-12.87-82.06l10.2 3.502zm-72.12-7.215s33.418-20.78 40.325-15.963c6.9 4.824 14.245 34.856 3.56 42.78-10.697 7.922-60.5-8.705-43.885-26.817" fill="#000"/><path d="M348.664 309.51c-.45-.578-.95-1.076-1.492-1.504-.28-.63-.64-1.238-1.09-1.816-9.106-11.71-51.343-9.293-75.35 9.41-21.74 16.937-25.488 36.237-19.446 48.11.48-.422.977-.835 1.492-1.236 7.726-6.02 16.763-7.528 21.004-3.73-42.658 37.024-83.023 97.626-83.023 97.626l4.992 8.376s29.364-59.16 79.774-103.507c2.065 5.09-1.62 13.07-9.046 18.854-.54.42-1.084.817-1.634 1.192.56 1.055 1.22 2.072 1.98 3.05 9.105 11.707 28.863 13.2 52.87-5.505 24.006-18.702 38.07-57.616 28.963-69.325" fill="#000"/><path d="M187.176 455.015s71.566-107.45 124.817-123.607c-74.578 40.83-119.82 131.982-119.82 131.982l-4.997-8.375z" fill="#547714"/><path d="M342.5 304.834c-9.107-11.708-51.345-9.293-75.35 9.41-21.74 16.937-25.49 36.238-19.448 48.11.48-.422.977-.834 1.493-1.236 8.268-6.442 18.04-7.718 21.824-2.85 3.78 4.866.15 14.033-8.12 20.474-.54.42-1.088.817-1.638 1.193.56 1.055 1.222 2.072 1.982 3.05 9.105 11.708 28.863 13.198 52.87-5.504 24.005-18.7 38.068-57.612 28.962-69.32-.45-.58-.95-1.077-1.49-1.505-.284-.63-.643-1.238-1.09-1.816" fill="#547714"/><path d="M272.954 355.924c.46.59.813 1.238 1.07 1.933l65.252-50.837c-.08-.114-.16-.227-.247-.338-1.66-2.132-4.33-3.782-7.716-4.95l-19.697 18.985 12.224-20.656c-4.404-.56-9.39-.593-14.63-.09l-9.49 25.664 2.284-24.653c-4.875.893-9.83 2.22-14.623 3.99l4.473 26.773-10.716-24.164c-4.383 2.06-8.522 4.52-12.2 7.382-.697.544-1.37 1.09-2.03 1.636l15.54 23.547-20.717-18.85c-4.335 4.327-7.54 8.68-9.72 12.93l26.747 14.92-29.536-7.667c-1.66 6.51-.92 12.563 1.74 17.634.444-.393.9-.774 1.38-1.146 7.636-5.948 16.864-6.86 20.614-2.04" fill="#4A660C"/><path d="M276.607 359.876c-.46-.59-1.002-1.09-1.617-1.506l66.8-52.042c.09.106.18.212.266.323 1.657 2.137 2.58 5.146 2.845 8.746l-23.73 14.848 23.428-7.115c-.593 4.457-1.857 9.36-3.714 14.383l-27.617 3.248 24.754 3.59c-2.143 4.576-4.735 9.128-7.716 13.415L305.23 347.04l20.893 16.235c-3.16 3.818-6.647 7.3-10.41 10.233-.716.556-1.425 1.086-2.132 1.605l-19.03-20.823 13.083 24.8c-5.367 3.23-10.466 5.346-15.2 6.483l-7.66-29.787-.17 30.81c-6.813.09-12.554-2.067-16.83-5.88.5-.34.992-.7 1.48-1.08 7.815-6.09 11.11-14.934 7.36-19.756" fill="#3D5106"/><path d="M170.72 176.682c-1.567-4.676-11.505-10.56-16.42-10.918-13.566-.984-40.697 10.524-50.707 19.74-3.67 3.38-7.206 14.772-5.115 19.304 1.597 3.46 13.44 6.587 14.106 6.762l75.7 219.436s14.105 9.67 38.495.176c29.5-11.487 30.82-27.164 30.82-27.164L165.51 191.63c.684-1.19 6.4-11.39 5.207-14.944" fill="#000"/><g transform="translate(0 162)"><mask id="d" fill="#fff"><use xlink:href="#c"/></mask><path d="M158.056 11.282C156.488 6.605 146.55.72 141.636.364c-13.567-.985-40.698 10.524-50.708 19.74-3.67 3.38-7.206 14.77-5.115 19.303 1.597 3.46 13.44 6.588 14.106 6.762l75.7 219.43s14.1 9.67 38.49.177c29.504-11.487 30.827-27.164 30.827-27.164L152.85 26.23c.683-1.195 6.4-11.39 5.206-14.948" fill="#F2EDEC" mask="url(#d)"/></g><path d="M284.27 253.78c-.82-.46-1.66-.8-2.515-1.036-.648-.606-1.378-1.146-2.198-1.605-16.626-9.317-65.435 14.662-84.526 48.81-17.29 30.927-12.09 55.656.99 66.693.356-.74.74-1.476 1.15-2.21 6.144-10.99 16.09-17.294 23.01-14.917-32.034 65.167-49.585 157.11-49.585 157.11l10.098 7.42s5.245-84.734 42.8-162.452c4.99 4.996 4.61 16.29-1.295 26.853-.43.77-.878 1.51-1.34 2.23 1.19.97 2.48 1.843 3.867 2.62 16.626 9.312 40.765 1.2 59.856-32.95 19.093-34.15 16.324-87.26-.303-96.573" fill="#000"/><path d="M177.922 504.78s16.362-165.154 67.024-215.67c-59.972 91.395-56.303 222.152-56.303 222.152l-10.72-6.483z" fill="#547714"/><path d="M263.52 240.523c-17.394-7.78-63.853 20.49-79.804 56.217-14.445 32.356-7.052 56.518 6.965 66.334.29-.768.61-1.537.95-2.304 5.496-12.306 15.81-19.658 23.04-16.425 7.23 3.233 8.64 15.83 3.146 28.135-.36.803-.74 1.583-1.135 2.34 1.27.86 2.636 1.614 4.087 2.263 17.394 7.78 40.708-2.47 56.657-38.2 15.952-35.727 8.428-88.374-8.966-96.153-.86-.385-1.726-.648-2.6-.805-.7-.546-1.474-1.018-2.333-1.402" fill="#547714"/><path d="M215.45 340.518c.875.392 1.67.914 2.378 1.546l43.356-97.115c-.16-.08-.32-.16-.485-.238-3.17-1.416-7.19-1.675-11.74-.955L238.07 277.2l1.405-30.822c-5.34 2.023-11.015 5-16.653 8.736l4.717 34.85-12.285-29.348c-4.993 3.957-9.814 8.46-14.184 13.365l21.227 27.67-26.736-20.936c-3.73 4.986-6.943 10.276-9.387 15.75-.464 1.037-.896 2.062-1.315 3.08l31.835 17.32-34.877-8.86c-2.31 7.528-3.317 14.403-3.228 20.54l39.345.76-38.13 9.156c2.043 8.39 6.535 14.81 12.614 18.952.265-.71.554-1.42.87-2.13 5.073-11.362 14.992-17.975 22.155-14.772" fill="#4A660C"/><path d="M221.978 342.793c-.876-.39-1.795-.63-2.743-.732l44.382-99.41c.166.066.332.13.498.206 3.166 1.416 6.03 4.273 8.502 8.197l-17.964 31.188 22.28-22.23c2.016 5.416 3.54 11.74 4.465 18.563l-29.373 20.376 30.25-10.89c.33 6.485.135 13.215-.66 19.88l-34.916 2.99 33.493 5.79c-1.28 6.24-3.135 12.3-5.637 17.9-.475 1.064-.96 2.094-1.45 3.11l-34.156-12.12 29.804 20.226c-4.14 6.912-8.647 12.394-13.33 16.543l-26.664-29.16 18.394 35.053c-7.672 4.222-15.486 5.242-22.638 3.502.36-.688.702-1.394 1.025-2.12 5.196-11.63 3.6-23.657-3.564-26.86" fill="#3D5106"/><path d="M230.65 550.372S102.96 444.495 89.42 374.214c42.208 100.854 152.594 170.88 152.594 170.88l-11.363 5.278z" fill="#547714"/><path d="M59.545 331.645c-16.167 10.09-18.708 64.45 1.978 97.655 18.736 30.072 42.886 37.44 58.852 31.29-.475-.67-.935-1.36-1.38-2.074-7.125-11.437-7.453-24.107-.733-28.302 6.72-4.193 17.943 1.677 25.068 13.114.465.745.9 1.497 1.305 2.25 1.423-.576 2.81-1.287 4.158-2.13 16.167-10.09 20.702-35.168.014-68.373-20.687-33.205-68.512-56.38-84.678-46.29-.8.497-1.506 1.07-2.12 1.707-.848.276-1.67.654-2.47 1.153" fill="#547714"/><path d="M115.528 427.427c.814-.51 1.69-.875 2.61-1.11l-56.232-90.26c-.155.09-.31.177-.465.273-2.94 1.837-5.4 5.03-7.344 9.206l21.624 27.73-24.754-18.39c-1.307 5.56-2.014 11.933-2.068 18.702l31.51 15.56-31.18-6.204c.49 6.355 1.525 12.874 3.148 19.242l34.786-2.156-32.287 10.49c2.047 5.886 4.635 11.51 7.803 16.594.602.966 1.21 1.897 1.82 2.814l32.142-16.744-26.834 23.998c4.948 6.122 10.08 10.8 15.217 14.157l22.618-32.238-13.722 36.765c8.09 2.993 15.92 2.853 22.75.122-.44-.617-.866-1.254-1.277-1.914-6.577-10.56-6.514-22.49.143-26.644" fill="#4A660C"/><path d="M121.062 423.28c-.814.508-1.527 1.136-2.14 1.867L61.358 332.75c.147-.1.295-.2.45-.297 2.94-1.837 6.908-2.617 11.54-2.476l15.803 32.34-5.964-30.917c5.614 1.353 11.706 3.623 17.875 6.667l.47 35.77 7.88-31.194c5.56 3.35 11.027 7.273 16.104 11.66l-17.033 30.65 23.517-24.567c4.455 4.55 8.438 9.475 11.682 14.68.614.99 1.197 1.968 1.765 2.942l-29.13 21.576 33.413-13.433c3.414 7.3 5.436 14.11 6.257 20.31l-39.062 5.84 39.323 4.324c-.79 8.727-4.31 15.784-9.75 20.747-.368-.684-.762-1.362-1.182-2.036-6.734-10.81-17.59-16.205-24.248-12.05" fill="#3D5106"/><g transform="translate(605 466)"><mask id="f" fill="#fff"><use xlink:href="#e"/></mask><path fill="#4A660C" mask="url(#f)" d="M154.58.166s.028.46.062 1.3c.04-.823-.063-1.3-.063-1.3"/></g><path d="M759.642 467.466c-.223 4.64-5.06 20.458-59.46 25.967-78.683 7.97-92.04 66.81-94.308 86.215 19.886-7.257 68.834-27.21 114.563-62.344-49.61 43.124-101.106 65.76-115.437 71.58 3.183 2.16 17.824 3.327 72.885-5.484 82.94-13.272 82.212-104.02 81.757-115.934" fill="#4A660C"/><g transform="translate(605 466)"><mask id="h" fill="#fff"><use xlink:href="#g"/></mask><path d="M154.69 7.605c.384 16.016-.138 111.148-80.583 124.02-49.595 7.938-69.33-6.372-74.107-8.74C77.356 92.705 132.707 49.65 154.69 7.605" fill="#5E771B" mask="url(#h)"/></g><path d="M553.764 561.432c-6.842 19.224-27.973 29.26-47.196 22.42-19.224-6.843-29.26-27.974-22.42-47.197 6.844-19.223 27.974-29.26 47.198-22.418 19.224 6.842 29.26 27.972 22.418 47.195" fill="#7F7F7F"/><path d="M543.173 557.7c-4.756 13.363-19.444 20.34-32.806 15.583-13.363-4.756-20.34-19.443-15.584-32.806 4.756-13.362 19.444-20.338 32.807-15.582 13.362 4.756 20.34 19.443 15.583 32.806" fill="#ADADAD"/><path d="M901.588 346.28l-8.65-3.078 39.17-110.046 8.65 3.078-39.17 110.047z" fill="#000"/><path d="M1086.062 83.307c-6.1-12.84-14.874-23.764-25.96-32.262l-2.444 6.86c26.3 21.465 37.29 57.614 25.356 91.138l-9.645 27.098c-15.2 42.696-62.15 65.017-104.846 49.82l-61.94-22.044c-42.69-15.195-65.23-62.25-50.036-104.94l9.645-27.1c12.104-34.005 44.48-55.105 78.89-54.545l2.426-6.815c-14.238-.592-28.61 2.26-41.895 8.57-21.48 10.204-37.71 28.16-45.684 50.562l-9.644 27.098c-7.975 22.403-6.776 46.573 3.427 68.054 10.203 21.48 28.132 37.702 50.537 45.676l61.94 22.046c22.404 7.975 46.576 6.736 68.057-3.47 21.48-10.2 37.706-28.17 45.68-50.572l9.645-27.097c7.975-22.405 6.69-46.593-3.513-68.073" fill="#AFAFAF"/><path d="M960.597 18.102c-2.473 6.95-10.11 10.577-17.06 8.104-6.95-2.474-10.578-10.112-8.105-17.06 2.474-6.95 10.112-10.578 17.06-8.105 6.95 2.48 10.578 10.117 8.105 17.066m103.233 36.74c-2.475 6.95-10.113 10.578-17.062 8.105-6.95-2.473-10.577-10.11-8.104-17.06 2.473-6.95 10.11-10.58 17.06-8.104 6.95 2.473 10.58 10.11 8.105 17.06" fill="#000"/><path d="M982.46 243.685l-90.664-32.27 6.687-18.788 90.664 32.27-6.687 18.788z" fill="#666"/><path d="M939.893 264.152l-25.648-9.13 14.543-40.856 25.648 9.128-14.543 40.858z" fill="#666"/><path d="M902.79 316.468l-10.08 28.32c-18.455 51.85-82.01 77.002-141.47 55.84l-57.897-20.607-2.76 7.76 57.897 20.605c31.203 11.107 64.212 10.84 93.124-.547 28.913-11.388 50.07-32.756 59.755-59.966l10.08-28.32-8.65-3.08zM549.76 444.505l8.65 3.078-39.17 110.046-8.65-3.08 39.17-110.05z" fill="#000"/><path d="M548.856 474.423l10.13-28.462c18.456-51.85 82.135-76.794 141.595-55.63l57.727 20.544 2.76-7.753-57.722-20.545c-31.203-11.105-64.273-10.94-93.185.448-28.914 11.388-50.133 32.654-59.818 59.865l-10.13 28.462 8.65 3.076zm-15.524 79.797c-2.92 8.207-11.942 12.49-20.15 9.57-8.205-2.92-12.49-11.94-9.57-20.147 2.922-8.207 11.942-12.49 20.15-9.57 8.206 2.92 12.49 11.94 9.57 20.147" fill="#000"/><g transform="translate(778 434)"><mask id="j" fill="#fff"><use xlink:href="#i"/></mask><path d="M273.675 47.12c62.687 62.573 62.78 164.118.205 226.804-62.574 62.688-164.117 62.78-226.805.206-62.686-62.573-62.78-164.117-.205-226.805 62.574-62.687 164.118-62.78 226.805-.205" fill="#494949" mask="url(#j)"/></g><path d="M1034.47 498.356c53.168 53.072 53.246 139.196.175 192.363-53.072 53.164-139.197 53.242-192.365.17-53.168-53.07-53.245-139.196-.174-192.364 53.073-53.17 139.196-53.247 192.365-.175" fill="#1C1C1C"/><path d="M1023.77 508.887c47.3 47.215 47.368 123.833.155 171.132-47.215 47.3-123.833 47.364-171.132.15-47.3-47.214-47.37-123.83-.155-171.13 47.214-47.3 123.832-47.37 171.13-.157" fill="#353535"/><path d="M1001.326 538.52c32.904 32.844 32.952 86.145.108 119.05-32.845 32.904-86.146 32.952-119.05.107-32.905-32.845-32.954-86.146-.108-119.05 32.844-32.905 86.145-32.953 119.05-.108" fill="#494949"/><path d="M941.966 625.276c10.362 4.924 31.612 19.324 26.803 29.445-4.816 10.127-33.86 12.13-44.22 7.21-10.36-4.923-14.867-17.12-10.057-27.24 4.81-10.12 17.11-14.333 27.47-9.41" fill="#161616"/><path d="M939.417 626.734c10.36 4.923 31.61 19.323 26.8 29.444-4.81 10.123-33.857 12.13-44.217 7.207-10.362-4.923-14.864-17.118-10.054-27.24 4.81-10.123 17.11-14.335 27.47-9.41" fill="#B27850"/><g fill="#93562C"><path d="M931.39 634.584c-2.803-.656-6.904.078-8.58.437 2.774 1.277 15.242 7.07 21.05 11.066 6.565 4.512 13.52 7.817 17.185 8.166 3.666.35-8.657-1.93-11.652-6.62-2.99-4.692-14.396-12.202-18.002-13.044"/><path d="M922.065 635.2s.282-.07.758-.173l-.555-.25-.203.423z"/></g><path d="M915.903 636.278s13.13 4.497 17.33 7.014c4.2 2.52 11.612 7.438 14.596 8.856 2.98 1.417-10.417-3.374-12.627-4.95-2.21-1.582-19.304-10.92-19.304-10.92m7.71 11.386s13.69 2.265 18.246 4.054c4.56 1.787 12.686 5.407 15.86 6.313 3.176.907-10.825-1.6-13.266-2.79-2.436-1.19-20.84-7.572-20.84-7.572m-11.573 5.293s13.692 2.266 18.25 4.055c4.557 1.787 12.684 5.412 15.86 6.313 3.177.906-10.827-1.6-13.267-2.792-2.438-1.19-20.84-7.576-20.84-7.576m23.28-20.527s12.793 5.37 16.816 8.168c4.022 2.8 11.09 8.2 13.968 9.818 2.88 1.614-10.164-4.062-12.26-5.786-2.097-1.723-18.526-12.196-18.526-12.196" fill="#93562C"/><path d="M927.044 639.946s13.13 4.496 17.33 7.015c4.2 2.52 11.61 7.44 14.596 8.86 2.98 1.416-10.412-3.373-12.622-4.95-2.21-1.58-19.304-10.92-19.304-10.92" fill="#BF8A66"/><path d="M922.69 644.17s13.675 2.37 18.22 4.195c4.54 1.825 12.64 5.51 15.81 6.438 3.17.93-10.813-1.686-13.244-2.894-2.432-1.21-20.786-7.74-20.786-7.74m-9.982 7.33s13.674 2.365 18.218 4.19c4.545 1.825 12.64 5.51 15.812 6.44 3.166.93-10.814-1.683-13.243-2.896-2.434-1.21-20.787-7.737-20.787-7.737" fill="#BF8A66"/><path d="M954.666 536.58c-3.537 4.337-.737 12.474 6.253 18.178 6.99 5.695 15.53 6.802 19.063 2.464.88-1.084 1.368-2.405 1.5-3.868.373-4.387-2.518-10.035-7.76-14.31-6.99-5.698-15.526-6.805-19.06-2.464" fill="#161616"/><path d="M972.38 534.208c5.243 4.278 8.13 9.92 7.752 14.307-.125 1.463-.612 2.782-1.496 3.87-3.54 4.336-12.075 3.234-19.065-2.47-6.99-5.693-9.79-13.838-6.26-18.173 3.546-4.337 12.077-3.235 19.07 2.466" fill="#DDCDAB"/><path d="M968.666 533.985c4.126 3.362 6.395 7.797 6.096 11.244-.1 1.15-.48 2.182-1.176 3.033-2.777 3.407-9.487 2.54-14.98-1.937-5.49-4.478-7.69-10.877-4.92-14.283 2.783-3.41 9.487-2.54 14.98 1.937" fill="#E8DCC8"/><path d="M953.31 531.742c-.02.03-.042.06-.068.093l25.32 20.637c.022-.032.047-.057.074-.088.884-1.087 1.37-2.406 1.496-3.87.377-4.385-2.51-10.028-7.753-14.306-7-5.7-15.53-6.803-19.07-2.466" fill="#AD956C"/><path d="M964.992 537.21c3.702 3.014 5.128 7.392 3.193 9.768-1.938 2.376-6.507 1.856-10.21-1.164-3.697-3.014-5.126-7.384-3.192-9.76 1.937-2.377 6.505-1.86 10.21 1.157" fill="#FFF"/><path d="M932.586 528.652c-5.486 1.103-8.49 9.168-6.71 18.013 1.785 8.84 7.676 15.117 13.163 14.012 1.363-.277 2.58-.99 3.61-2.035 3.074-3.152 4.43-9.352 3.092-15.984-1.78-8.84-7.672-15.115-13.16-14.006" fill="#161616"/><path d="M947.776 538.068c1.335 6.634-.02 12.827-3.096 15.975-1.025 1.05-2.24 1.76-3.612 2.04-5.49 1.1-11.383-5.17-13.16-14.014-1.788-8.846 1.224-16.91 6.704-18.02 5.49-1.1 11.38 5.167 13.164 14.014" fill="#DDCDAB"/><path d="M945.05 535.538c1.052 5.217-.012 10.084-2.43 12.557-.81.825-1.76 1.384-2.84 1.6-4.308.867-8.94-4.062-10.34-11.01-1.4-6.944.963-13.285 5.268-14.156 4.314-.87 8.94 4.06 10.342 11.004" fill="#E8DCC8"/><path d="M934.613 524.054c-.038.01-.073.02-.113.027l6.454 32.026c.038-.01.073-.012.114-.02 1.372-.278 2.587-.988 3.612-2.04 3.076-3.147 4.43-9.34 3.097-15.974-1.785-8.847-7.675-15.116-13.164-14.014" fill="#AD956C"/><path d="M940.162 535.697c.947 4.678-.73 8.965-3.735 9.572-3.005.6-6.205-2.7-7.148-7.388-.947-4.676.724-8.96 3.73-9.568 3.003-.604 6.204 2.695 7.15 7.38" fill="#FFF"/><path d="M925.744 504.217c-3.536 4.336-.736 12.474 6.254 18.177 6.994 5.695 15.53 6.803 19.068 2.465.88-1.09 1.368-2.41 1.5-3.87.373-4.39-2.52-10.04-7.762-14.31-6.988-5.7-15.524-6.81-19.06-2.467" fill="#161616"/><path d="M943.458 501.844c5.243 4.278 8.13 9.922 7.753 14.308-.12 1.462-.61 2.782-1.49 3.868-3.54 4.337-12.076 3.236-19.066-2.468-6.993-5.694-9.79-13.84-6.26-18.174 3.54-4.337 12.073-3.235 19.07 2.466" fill="#DDCDAB"/><path d="M939.745 501.62c4.125 3.363 6.394 7.8 6.096 11.245-.1 1.152-.48 2.187-1.172 3.038-2.776 3.407-9.486 2.54-14.98-1.937-5.49-4.477-7.69-10.876-4.92-14.282 2.784-3.41 9.488-2.54 14.98 1.937" fill="#E8DCC8"/><path d="M924.39 499.378c-.023.032-.043.062-.07.094l25.32 20.637c.023-.037.048-.06.075-.09.883-1.09 1.37-2.41 1.496-3.87.38-4.388-2.51-10.03-7.75-14.31-6.994-5.7-15.525-6.803-19.07-2.466" fill="#AD956C"/><path d="M936.07 504.847c3.703 3.014 5.13 7.392 3.194 9.767-1.937 2.377-6.507 1.856-10.21-1.164-3.697-3.014-5.126-7.384-3.192-9.76 1.937-2.376 6.505-1.86 10.21 1.157" fill="#FFF"/><path d="M893.55 510.303c-5.487 1.104-8.49 9.17-6.712 18.013 1.786 8.84 7.677 15.118 13.164 14.013 1.368-.28 2.584-.99 3.615-2.04 3.074-3.15 4.427-9.35 3.092-15.985-1.786-8.84-7.676-15.116-13.16-14.007" fill="#161616"/><path d="M908.74 519.72c1.334 6.633-.02 12.825-3.097 15.974-1.025 1.05-2.24 1.76-3.612 2.04-5.49 1.1-11.38-5.17-13.16-14.014-1.783-8.84 1.23-16.908 6.71-18.015 5.49-1.102 11.38 5.167 13.164 14.014" fill="#DDCDAB"/><path d="M906.013 517.188c1.052 5.218-.012 10.085-2.43 12.558-.81.826-1.76 1.384-2.84 1.6-4.308.868-8.94-4.06-10.34-11.01-1.4-6.943.963-13.285 5.27-14.156 4.313-.866 8.94 4.062 10.34 11.008" fill="#E8DCC8"/><path d="M895.576 505.705c-.038.01-.072.02-.113.028l6.454 32.02c.038-.01.073-.013.114-.02 1.377-.278 2.59-.988 3.617-2.04 3.077-3.148 4.43-9.34 3.097-15.974-1.784-8.85-7.674-15.12-13.163-14.02" fill="#AD956C"/><path d="M901.125 517.348c.948 4.678-.73 8.966-3.735 9.573-3.005.61-6.204-2.694-7.148-7.38-.94-4.674.73-8.96 3.733-9.566 3.005-.604 6.206 2.696 7.15 7.38" fill="#FFF"/><path d="M957.395 593.368c-2.38 8.506-10.52 26.516-18.83 24.193-8.31-2.32-13.64-24.1-11.26-32.602 2.378-8.506 11.04-13.52 19.35-11.197 8.31 2.323 13.118 11.104 10.74 19.61" fill="#161616"/><path d="M955.955 591.624c-2.378 8.505-10.52 26.516-18.83 24.193-8.31-2.324-13.64-24.1-11.26-32.607 2.377-8.507 11.04-13.52 19.35-11.197 8.31 2.324 13.12 11.104 10.74 19.61" fill="#B27850"/><g fill="#93562C"><path d="M948.947 586.562c.13-2.213-.963-5.23-1.455-6.454-.603 2.272-3.365 12.49-5.636 17.422-2.563 5.57-4.16 11.283-3.945 14.11.22 2.826.33-6.823 3.5-9.71 3.17-2.885 7.37-12.522 7.54-15.368"/><path d="M947.258 579.568s.09.204.23.552l.118-.455-.348-.097z"/></g><path d="M945.632 575.033s-1.692 10.552-3.05 14.068c-1.363 3.52-4.123 9.79-4.808 12.24-.684 2.447 1.195-8.342 2.103-10.226.91-1.88 5.755-16.076 5.755-16.076m-7.63 7.336s.076 10.686-.684 14.38c-.758 3.692-2.442 10.332-2.713 12.86-.268 2.527-.202-8.424.38-10.432.587-2.005 3.018-16.806 3.018-16.806m-5.533-8.085s.075 10.686-.686 14.38c-.76 3.69-2.444 10.33-2.712 12.86-.27 2.53-.205-8.425.38-10.432.583-2.007 3.018-16.808 3.018-16.808m18.623 14.974s-2.4 10.413-3.994 13.83c-1.6 3.42-4.77 9.49-5.62 11.886-.848 2.395 1.75-8.246 2.783-10.06 1.033-1.82 6.826-15.656 6.826-15.656" fill="#93562C"/><path d="M944.31 583.966s-1.693 10.552-3.054 14.068c-1.36 3.518-4.12 9.785-4.806 12.235-.684 2.442 1.195-8.347 2.102-10.23.91-1.883 5.757-16.078 5.757-16.078" fill="#BF8A66"/><path d="M940.534 581.216s-.008 10.687-.796 14.374c-.79 3.686-2.524 10.312-2.814 12.84-.29 2.526-.137-8.426.46-10.43.6-2.002 3.15-16.784 3.15-16.784m-6.87-6.614s-.005 10.686-.795 14.373c-.79 3.687-2.528 10.313-2.82 12.84-.29 2.525-.14-8.425.463-10.426.6-2.01 3.148-16.79 3.148-16.79" fill="#BF8A66"/><path d="M975.666 511.815c-3.537 4.336-.737 12.474 6.253 18.177 6.99 5.695 15.53 6.803 19.063 2.465.88-1.085 1.368-2.406 1.5-3.868.373-4.39-2.52-10.04-7.76-14.317-6.99-5.696-15.526-6.804-19.06-2.462" fill="#161616"/><path d="M993.38 509.443c5.243 4.278 8.13 9.92 7.752 14.307-.125 1.462-.612 2.782-1.496 3.868-3.54 4.337-12.075 3.236-19.065-2.468-6.99-5.694-9.79-13.838-6.254-18.174 3.54-4.337 12.072-3.235 19.068 2.467" fill="#DDCDAB"/><path d="M989.667 509.22c4.125 3.362 6.394 7.797 6.095 11.243-.1 1.152-.48 2.187-1.176 3.038-2.777 3.41-9.486 2.546-14.98-1.932-5.49-4.476-7.69-10.876-4.92-14.282 2.784-3.41 9.488-2.54 14.98 1.937" fill="#E8DCC8"/><path d="M974.312 506.976c-.023.032-.044.062-.07.094l25.32 20.637c.022-.032.048-.057.075-.09.883-1.085 1.37-2.405 1.495-3.867.377-4.386-2.51-10.03-7.752-14.307-6.996-5.702-15.528-6.804-19.068-2.467" fill="#AD956C"/><path d="M985.992 512.446c3.702 3.013 5.13 7.39 3.194 9.767-1.938 2.376-6.508 1.855-10.21-1.164-3.698-3.02-5.127-7.39-3.193-9.767 1.937-2.375 6.505-1.86 10.21 1.16" fill="#FFF"/><path d="M886.283 687.164l-25.47 3.568-18.123-129.396 25.472-3.568 18.12 129.396z" fill="#8E4300"/><path d="M886.283 687.164l-12.736 1.784-18.12-129.396 12.735-1.784 18.12 129.396z" fill="#8C5E3B"/><path d="M868.998 689.845l-6.877.963L844 561.412l6.877-.963 18.12 129.39zm-2.09-59.44l-3.31.462-9.92-70.81 3.312-.464 9.917 70.81z" fill="#492912"/><path d="M952.59 706.038l-20.045 16.116-81.867-101.83 20.045-16.116 81.867 101.83z" fill="#8E4300"/><path d="M952.59 706.038l-10.023 8.058-81.867-101.83 10.023-8.058 81.867 101.83z" fill="#663913"/><path d="M939.12 717.197l-5.412 4.352-81.867-101.836 5.417-4.352 81.867 101.83zm-32.254-49.972l-2.607 2.095-44.806-55.726 2.607-2.096 44.8 55.727z" fill="#492912"/><path d="M926.78 699.92l-25.472 3.567-18.122-129.395 25.472-3.567L926.78 699.92z" fill="#8E4300"/><path d="M926.78 699.92l-12.736 1.784-18.122-129.396 12.736-1.783L926.78 699.92z" fill="#663913"/><path d="M909.495 702.6l-6.878.965-18.122-129.397 6.878-.963L909.495 702.6zm-2.092-59.44l-3.31.464-9.918-70.81 3.31-.465 9.918 70.81z" fill="#492912"/><path d="M933.53 584.607c-3.652 12.11-12.456 20.162-19.66 17.99-7.21-2.172-10.093-13.752-6.44-25.862 3.652-12.11 12.456-20.165 19.663-17.99 7.203 2.174 10.087 13.753 6.437 25.862" fill="#93500D"/><path d="M933.1 584.31c-3.103 10.277-10.576 17.12-16.696 15.272-6.117-1.847-8.564-11.674-5.464-21.953 3.1-10.28 10.572-17.127 16.693-15.28 6.118 1.842 8.565 11.674 5.466 21.96" fill="#C66700"/><path d="M927.667 582.505c-2.5 8.28-7.48 14.098-11.128 13-3.656-1.1-4.588-8.706-2.09-16.988 2.5-8.28 7.48-14.102 11.13-13 3.65 1.096 4.58 8.702 2.083 16.988" fill="#FA0"/><path d="M987.763 552.16c-3.653 12.112-12.458 20.163-19.66 17.99-7.21-2.17-10.094-13.75-6.44-25.86 3.65-12.11 12.454-20.165 19.662-17.99 7.204 2.173 10.087 13.753 6.438 25.86" fill="#93500D"/><path d="M987.33 551.866c-3.1 10.276-10.572 17.118-16.693 15.272-6.117-1.847-8.565-11.675-5.464-21.954 3.1-10.28 10.572-17.123 16.693-15.277 6.12 1.844 8.565 11.675 5.465 21.96" fill="#C66700"/><path d="M981.898 550.06c-2.498 8.278-7.476 14.097-11.126 13-3.65-1.1-4.585-8.706-2.086-16.99 2.497-8.28 7.48-14.1 11.13-13 3.65 1.097 4.58 8.704 2.082 16.99" fill="#FA0"/><path d="M885.727 562.43c3.835 12.05 1.132 23.673-6.04 25.955-7.173 2.283-16.102-5.64-19.936-17.69-3.83-12.053-1.12-23.677 6.05-25.958 7.175-2.283 16.096 5.64 19.93 17.693" fill="#93500D"/><path d="M885.208 562.427c3.255 10.23.955 20.1-5.134 22.037-6.092 1.94-13.67-4.788-16.923-15.018-3.252-10.234-.954-20.1 5.138-22.038 6.088-1.937 13.668 4.786 16.924 15.02" fill="#C66700"/><path d="M879.704 564.01c2.623 8.242 1.805 15.86-1.826 17.015-3.633 1.156-8.705-4.588-11.328-12.832-2.622-8.244-1.802-15.862 1.83-17.018 3.63-1.155 8.7 4.59 11.324 12.834" fill="#FA0"/><path d="M973.31 589.944c-12.43 2.33-23.637-1.773-25.025-9.172-1.392-7.396 7.564-15.29 19.99-17.627 12.432-2.33 23.64 1.773 25.026 9.17 1.398 7.398-7.56 15.29-19.99 17.63" fill="#93500D"/><path d="M973.374 589.422c-10.554 1.983-20.066-1.503-21.242-7.785-1.182-6.28 6.418-12.978 16.967-14.963 10.553-1.98 20.07 1.506 21.244 7.784 1.178 6.28-6.42 12.982-16.974 14.964" fill="#C66700"/><path d="M972.477 583.77c-8.5 1.593-15.964-.15-16.67-3.893-.7-3.745 5.62-8.077 14.122-9.674 8.5-1.596 15.96.146 16.663 3.89.706 3.744-5.62 8.08-14.12 9.677" fill="#FA0"/><path d="M970.292 683.107c2.597 13.255-1.694 25.252-9.58 26.797-7.89 1.548-16.393-7.944-18.99-21.2-2.596-13.254 1.695-25.255 9.585-26.8 7.885-1.542 16.388 7.95 18.985 21.203" fill="#93500D"/><path d="M969.737 683.043c2.202 11.25-1.438 21.438-8.137 22.75-6.697 1.31-13.913-6.746-16.116-17.998-2.206-11.252 1.433-21.44 8.133-22.754 6.697-1.31 13.913 6.75 16.12 18.007" fill="#C66700"/><path d="M963.708 684.05c1.773 9.063-.023 17.042-4.016 17.827-3.996.783-8.673-5.932-10.45-14.997-1.776-9.064.023-17.047 4.018-17.83 3.994-.785 8.668 5.932 10.448 15" fill="#FA0"/><path d="M1035.128 670.8c-10.572 8.405-23.202 10.124-28.203 3.832-5.007-6.288-.492-18.21 10.074-26.618 10.57-8.407 23.2-10.126 28.2-3.835 5.004 6.283.49 18.204-10.076 26.62" fill="#93500D"/><path d="M1034.927 670.275c-8.974 7.14-19.693 8.598-23.94 3.253-4.25-5.34-.42-15.455 8.55-22.594 8.98-7.14 19.7-8.598 23.945-3.26 4.248 5.342.42 15.462-8.555 22.6" fill="#C66700"/><path d="M1031.26 665.387c-7.23 5.747-15.146 7.827-17.68 4.645-2.532-3.184 1.272-10.43 8.503-16.18 7.23-5.753 15.142-7.83 17.676-4.65 2.53 3.183-1.28 10.433-8.5 16.185" fill="#FA0"/><path d="M973.934 623.533c9.636 9.464 12.886 21.784 7.253 27.52-5.632 5.734-18.014 2.713-27.65-6.75-9.636-9.465-12.88-21.79-7.25-27.525 5.634-5.736 18.01-2.71 27.647 6.755" fill="#93500D"/><path d="M973.443 623.79c8.18 8.033 10.935 18.5 6.154 23.367-4.785 4.87-15.295 2.302-23.474-5.73-8.183-8.037-10.938-18.497-6.154-23.368 4.78-4.87 15.29-2.31 23.47 5.73" fill="#C66700"/><path d="M969.036 628.03c6.592 6.474 9.62 14.074 6.77 16.976-2.852 2.906-10.507.015-17.1-6.46-6.59-6.472-9.62-14.074-6.766-16.98 2.85-2.9 10.505-.01 17.096 6.465" fill="#FA0"/><path d="M1010.51 668.288c-10.57 8.406-23.2 10.126-28.202 3.834-5.006-6.288-.49-18.21 10.075-26.62 10.572-8.405 23.2-10.126 28.2-3.833 5.01 6.282.495 18.204-10.072 26.614" fill="#93500D"/><path d="M1010.31 667.764c-8.973 7.14-19.692 8.598-23.94 3.253-4.25-5.34-.418-15.455 8.55-22.594 8.98-7.14 19.7-8.597 23.946-3.26 4.248 5.343.42 15.463-8.555 22.6" fill="#C66700"/><path d="M1006.644 662.876c-7.23 5.746-15.146 7.827-17.68 4.646-2.532-3.185 1.27-10.43 8.502-16.182 7.23-5.752 15.144-7.83 17.677-4.647 2.535 3.182-1.274 10.43-8.5 16.183" fill="#FA0"/><path fill="#662E12" d="M1037.4 527.492s.143.27.393.767c-.2-.51-.392-.77-.392-.77m.396.77c1.132 2.853 2.534 13.704-28.746 31.88-45.245 26.28-37.233 65.38-33.303 77.69 10.003-9.8 34.055-35.188 52.025-68.84-18.126 39.53-42.98 67.23-50.03 74.65 2.508.43 11.65-2.865 42.43-23.207 46.36-30.64 21.15-85.12 17.624-92.175"/><path d="M1039.497 531.944c4.604 9.546 30.257 67.008-14.71 96.727-27.722 18.33-43.523 15.09-47.047 14.97 38.38-39.3 59.986-80.355 61.757-111.692" fill="#664C32"/><path d="M945.84 615.903l-5.933 4.08-74.31-108.096 5.935-4.08 74.31 108.096z" fill="#FF5B00"/><path d="M927.816 644.5l-6.82 2.313-42.14-124.22 6.82-2.313 42.14 124.22z" fill="#FA0"/><g transform="translate(287 551)"><mask id="l" fill="#fff"><use xlink:href="#k"/></mask><path d="M135.964 42.688l-41.908-9.49-49.007 42.37L7.98 188.25l-4.945 15.033-2.414 7.34c-3.71 11.276 9.5 26 29.7 32.665l37.75 12.454c20.2 6.664 39.77 2.753 43.48-8.52l2.413-7.343 4.946-15.037 37.064-112.683-20.01-69.475z" fill="#B76629" mask="url(#l)"/></g><path d="M436.025 600.143l-30.052-12.06-47.028 142.97-13.64 41.464-9.2 27.968 18.965 6.257c20.203 6.664 39.77 2.753 43.48-8.52l2.414-7.343 4.945-15.037 37.06-112.683-6.95-63.02z" fill="#8E4300"/><path d="M419.11 682.687c0 4.804-3.89 8.697-8.685 8.697h-.227c-4.796 0-8.684-3.893-8.684-8.697v-29.485c0-4.803 3.888-8.697 8.684-8.697h.227c4.796 0 8.684 3.894 8.684 8.697v29.485z" fill="#C1B091"/><path d="M401.514 666.45v16.67c0 4.803 4.303 8.597 9.1 8.597h.003c4.795 0 8.492-3.794 8.492-8.597v-16.67h-17.6z" fill="#A88E7B"/><path d="M410.617 644.505h-.14v47.212h.14c4.795 0 8.492-3.794 8.492-8.597v-29.597c0-4.802-3.7-9.018-8.497-9.018" fill="#000"/><path d="M408.817 681.743c0 1.208-.95 2.187-2.158 2.187s-2.16-.98-2.16-2.187V653.1c0-1.21.95-2.19 2.155-2.19 1.206 0 2.157.98 2.157 2.19v28.643z" fill="#FFF"/><path d="M375.864 706.567c-2.923 3.808-8.376 4.522-12.178 1.595l-.086-.067c-3.803-2.928-4.515-8.388-1.592-12.196l17.987-23.437c2.924-3.808 8.376-4.52 12.178-1.594l.087.067c3.802 2.926 4.514 8.387 1.59 12.195l-17.986 23.43z" fill="#C1B091"/><path d="M372.004 682.877l-10.017 13.05c-2.923 3.807-2.154 9.268 1.648 12.195l.003.002c3.802 2.928 9.282 2.278 12.205-1.53l10.017-13.05-13.856-10.667z" fill="#A88E7B"/><path d="M392.21 670.903l-.075-.06-28.574 37.222.08.06c3.8 2.927 9.28 2.277 12.207-1.53l18.012-23.464c2.922-3.803 2.16-9.3-1.645-12.223" fill="#000"/><path d="M368.26 699.243c-.73.95-2.166 1.074-3.117.342-.95-.73-1.2-2.152-.47-3.104l17.44-22.713c.73-.95 2.165-1.075 3.116-.343.95.733 1.2 2.154.47 3.106l-17.44 22.717z" fill="#FFF"/><path d="M383.92 789.08c0 4.804-3.89 8.697-8.686 8.697h-.227c-4.796 0-8.684-3.893-8.684-8.697v-29.485c0-4.803 3.888-8.697 8.684-8.697h.227c4.797 0 8.685 3.894 8.685 8.697v29.485z" fill="#C1B091"/><path d="M366.323 772.51v16.66c0 4.803 4.128 8.607 8.924 8.607h.004c4.8 0 8.34-3.804 8.34-8.608v-16.66h-17.263z" fill="#A88E7B"/><path d="M375.25 750.898h.037v46.88h-.036c4.8 0 8.34-3.805 8.34-8.61v-29.595c0-4.803-3.54-8.675-8.335-8.675" fill="#000"/><path d="M373.295 787.97c0 1.193-.966 2.16-2.158 2.16s-2.158-.967-2.158-2.16v-28.594c0-1.193.96-2.16 2.153-2.16s2.158.967 2.158 2.16v28.593z" fill="#FFF"/><path d="M347.942 779.776c-2.632 4.016-8.016 5.135-12.025 2.5l-.092-.06c-4.01-2.636-5.126-8.03-2.495-12.044l16.193-24.71c2.63-4.015 8.015-5.134 12.024-2.5l.092.06c4.004 2.637 5.122 8.03 2.49 12.044l-16.19 24.71z" fill="#C1B091"/><path d="M342.33 756.44l-9.02 13.76c-2.63 4.017-1.457 9.405 2.553 12.04l.003.002c4.01 2.635 9.425 1.58 12.057-2.437l9.018-13.76-14.61-9.605z" fill="#A88E7B"/><path d="M361.588 742.99l-.08-.053-25.723 39.25.08.055c4.01 2.635 9.426 1.578 12.058-2.437l16.214-24.743c2.632-4.016 1.46-9.437-2.55-12.072" fill="#000"/><path d="M339.813 773.04c-.658 1.003-2.08 1.234-3.082.574-1-.66-1.353-2.056-.694-3.06l15.698-23.957c.66-1.004 2.08-1.234 3.083-.576 1.003.66 1.358 2.06.7 3.067l-15.7 23.957z" fill="#FFF"/><path d="M385.246 652.1c0 4.803-3.888 8.696-8.684 8.696h-.226c-4.796 0-8.685-3.893-8.685-8.696v-29.486c0-4.803 3.89-8.697 8.69-8.697h.226c4.796 0 8.684 3.894 8.684 8.697V652.1z" fill="#C1B091"/><path d="M367.65 635.86v16.372c0 4.803 3.83 8.565 8.625 8.565h.004c4.79 0 8.962-3.762 8.962-8.565v-16.37H367.65z" fill="#A88E7B"/><path d="M376.28 613.917h.003v46.88h-.004c4.79 0 8.963-3.762 8.963-8.565v-29.597c0-4.803-4.172-8.718-8.968-8.718" fill="#000"/><path d="M374.623 651.032c0 1.2-1.29 2.174-2.49 2.174-1.2 0-2.49-.974-2.49-2.174v-28.655c0-1.202 1.29-2.175 2.49-2.175 1.2 0 2.49.973 2.49 2.175v28.655z" fill="#FFF"/><path d="M315.902 769.112c-1.75 5.316-7.812 8.094-13.615 6.18-5.803-1.915-9.03-7.758-7.282-13.074l41.742-126.898c1.748-5.316 7.812-8.094 13.614-6.18 5.81 1.915 9.036 7.757 7.287 13.073l-41.74 126.9z" fill="#FFD797"/><path d="M361.747 773.21c-2.44 7.423-10.867 11.314-18.97 8.64-8.103-2.672-12.57-10.817-10.128-18.24l58.28-177.196c2.443-7.423 10.87-11.314 18.97-8.64 8.105 2.672 12.57 10.817 10.13 18.24L361.747 773.21z" fill="#563402"/><path d="M397.272 776.436l-96.474-31.828 25.026-76.082 96.474 31.83-25.026 76.08z" fill="#FFF"/><path d="M397.272 776.436l-49.994-16.494 25.026-76.082 49.994 16.495-25.026 76.08z" fill="#E5E5E5"/><path d="M400.95 731.687l-71.866-23.71.772-2.348 71.867 23.71-.772 2.343zm-33.832-6.393l-39.45-13.015.772-2.35 39.45 13.013-.772 2.347z" fill="#BABABA"/><path d="M404.425 721.125l-71.867-23.71.772-2.347 71.867 23.71-.772 2.347zm-33.705-6.785l-39.45-13.013.773-2.347 39.45 13.014-.773 2.347z" fill="#4A660C"/><path d="M436.583 602.3l-55.462-18.298 10.298-31.293 55.463 18.294-10.294 31.293z" fill="#8E856C"/><path d="M442.164 599.155l-64.25-21.197 8.813-26.795 64.25 21.198-8.813 26.8z" fill="#ADA690"/><path d="M445.784 588.418l-64.29-21.21.946-2.88 64.29 21.212-.946 2.878z" fill="#E8E4D9"/><path fill="#4A660C" d="M393.888 730.898s-.02.095-.06.267c.054-.164.06-.267.06-.267"/><path d="M393.828 731.165c-.303.927-2.16 3.86-13.468 1.943-16.354-2.773-22.33 8.395-23.868 12.198 4.425-.36 15.433-1.673 26.636-6.236-12.432 5.966-24.105 7.677-27.327 8.057.528.615 3.42 1.667 15.05 2.953 17.51 1.936 22.41-16.477 22.982-18.915" fill="#4A660C"/><path d="M393.496 732.41c-.813 3.265-6.213 22.497-23.196 20.618-10.47-1.157-13.665-5.155-14.5-5.9 17.323-1.8 30.91-7.43 37.696-14.717" fill="#5E771B"/></g></svg>